HIERARCHY
ROOT SpineBase
{
  OFFSET 0.000000 0.000000 0.000000
  CHANNELS 6 Xposition Yposition Zposition Zrotation Xrotation Yrotation
  JOINT SpineMid
  {
    OFFSET 0.000000 24.664416 0.000000
    CHANNELS 3 Zrotation Xrotation Yrotation
    JOINT SpineShoulder
    {
      OFFSET 0.167528 18.209719 -0.468995
      CHANNELS 3 Zrotation Xrotation Yrotation
      JOINT Neck
      {
        OFFSET 0.072180 6.019363 -0.387326
        CHANNELS 3 Zrotation Xrotation Yrotation
        JOINT Head
        {
          OFFSET 3.818108 10.503067 -0.507389
          CHANNELS 3 Zrotation Xrotation Yrotation
          End Site
          {
            OFFSET 0 0 0
          }
        }
      }
      JOINT ShoulderLeft
      {
        OFFSET -10.324509 -0.945912 -7.618048
        CHANNELS 3 Zrotation Xrotation Yrotation
        JOINT ElbowLeft
        {
          OFFSET 3.693379 -19.642270 -5.149178
          CHANNELS 3 Zrotation Xrotation Yrotation
          JOINT WristLeft
          {
            OFFSET 19.356707 0.401463 -8.371751
            CHANNELS 3 Zrotation Xrotation Yrotation
            JOINT HandLeft
            {
              OFFSET 9.688277 0.397794 -4.857815
              CHANNELS 3 Zrotation Xrotation Yrotation
              JOINT HandTipLeft
              {
                OFFSET 3.457285 0.697680 1.288274
                CHANNELS 3 Zrotation Xrotation Yrotation
                End Site
                {
                  OFFSET 0 0 0
                }
              }
              JOINT ThumbLeft
              {
                OFFSET -1.947423 0.293197 -3.818240
                CHANNELS 3 Zrotation Xrotation Yrotation
                End Site
                {
                  OFFSET 0 0 0
                }
              }
            }
          }
        }
      }
      JOINT ShoulderRight
      {
        OFFSET 7.639475 2.159793 3.922777
        CHANNELS 3 Zrotation Xrotation Yrotation
        JOINT ElbowRight
        {
          OFFSET 5.069504 -13.874837 5.758091
          CHANNELS 3 Zrotation Xrotation Yrotation
          JOINT WristRight
          {
            OFFSET 4.225975 -4.894850 -22.331719
            CHANNELS 3 Zrotation Xrotation Yrotation
            JOINT HandRight
            {
              OFFSET 2.949913 -3.525281 -10.911394
              CHANNELS 3 Zrotation Xrotation Yrotation
              JOINT HandTipRight
              {
                OFFSET -0.822172 0.407064 -1.980798
                CHANNELS 3 Zrotation Xrotation Yrotation
                End Site
                {
                  OFFSET 0 0 0
                }
              }
              JOINT ThumbRight
              {
                OFFSET 3.678071 0.327748 1.110256
                CHANNELS 3 Zrotation Xrotation Yrotation
                End Site
                {
                  OFFSET 0 0 0
                }
              }
            }
          }
        }
      }
    }
  }
  JOINT HipLeft
  {
    OFFSET -4.305242 1.217645 -6.402688
    CHANNELS 3 Zrotation Xrotation Yrotation
    JOINT KneeLeft
    {
      OFFSET -5.425155 -33.998500 0.113696
      CHANNELS 3 Zrotation Xrotation Yrotation
      JOINT AnkleLeft
      {
        OFFSET -2.582464 -33.013717 8.033587
        CHANNELS 3 Zrotation Xrotation Yrotation
        JOINT FootLeft
        {
          OFFSET 6.092160 -2.172714 -10.883628
          CHANNELS 3 Zrotation Xrotation Yrotation
          End Site
          {
            OFFSET 0 0 0
          }
        }
      }
    }
  }
  JOINT HipRight
  {
    OFFSET 4.085224 0.287427 0.545564
    CHANNELS 3 Zrotation Xrotation Yrotation
    JOINT KneeRight
    {
      OFFSET 0.314078 -28.754337 1.590695
      CHANNELS 3 Zrotation Xrotation Yrotation
      JOINT AnkleRight
      {
        OFFSET -10.445969 -38.826683 5.743660
        CHANNELS 3 Zrotation Xrotation Yrotation
        JOINT FootRight
        {
          OFFSET -0.252308 -5.616899 -2.004378
          CHANNELS 3 Zrotation Xrotation Yrotation
          End Site
          {
            OFFSET 0 0 0
          }
        }
      }
    }
  }
}
MOTION
Frames: 16
Frame Time: 0.033333
11.891619 73.625762 361.892740 -0.343191 1.344825 -41.066624 0.878717 0.198314 41.080299 0.249751 -0.059176 0.033954 -0.099647 0.110558 -0.359855 0.000000 0.000000 0.000000 -4.873388 -0.598575 1.056418 -3.556502 -3.493459 -1.264523 18.126456 8.845413 5.638864 -7.878488 -11.761874 29.594170 0.000000 0.000000 0.000000 0.000000 0.000000 0.000000 0.687253 -12.542214 -3.423220 -2.055336 20.157673 7.121772 0.505227 2.372733 1.318762 -2.248349 -14.109491 -11.003061 0.000000 0.000000 0.000000 0.000000 0.000000 0.000000 2.010144 -0.777181 41.182315 0.281380 0.632799 0.125232 -6.100228 -7.702833 6.917825 0.000000 0.000000 0.000000 0.077893 -1.961971 40.963893 1.572947 0.188185 0.086488 28.982317 -6.288690 -8.919775 0.000000 0.000000 0.000000
11.873425 73.562062 361.871275 -0.351369 1.433688 -41.047601 0.855850 0.210943 41.060657 0.249012 -0.042632 0.032870 0.178205 -0.202578 -0.273744 0.000000 0.000000 0.000000 -4.160912 -0.478162 0.929515 -3.238199 -3.450619 0.273383 17.733079 8.215761 2.399064 -9.105436 -11.526533 28.814532 0.000000 0.000000 0.000000 0.000000 0.000000 0.000000 0.706865 -12.674079 -3.418020 -2.046798 20.621689 7.234335 2.237911 6.411697 0.148623 -7.730255 -7.336917 -17.364228 0.000000 0.000000 0.000000 0.000000 0.000000 0.000000 2.033107 -0.821977 41.158452 0.323248 0.557426 0.140339 -4.318692 -4.578751 5.032811 0.000000 0.000000 0.000000 0.627693 -1.583475 40.995991 0.917742 0.173516 0.051276 26.601980 -17.000245 -5.176875 0.000000 0.000000 0.000000
11.863589 73.519491 361.860358 -0.322360 1.482581 -41.075568 0.837429 0.218297 41.088645 0.258514 -0.054968 0.034532 0.242293 -0.420926 -0.207859 0.000000 0.000000 0.000000 -3.723284 -0.374728 0.840731 -4.194742 -3.819922 0.386713 19.254931 8.825272 1.395771 -10.872606 -10.785873 22.442887 0.000000 0.000000 0.000000 0.000000 0.000000 0.000000 0.677008 -12.727709 -3.418724 -2.108676 20.472497 7.404798 2.945269 7.400284 -0.765016 -6.797832 -10.486423 -9.475685 0.000000 0.000000 0.000000 0.000000 0.000000 0.000000 2.092532 -0.879081 41.193935 0.283866 0.607044 0.132267 -6.685421 -8.733393 7.318696 0.000000 0.000000 0.000000 0.564540 -1.714829 41.015831 1.023384 0.182091 0.056977 28.963515 -38.504602 1.821209 0.000000 0.000000 0.000000
11.846199 73.471436 361.847356 -0.309719 1.520993 -41.098747 0.845087 0.212060 41.112195 0.275795 -0.077014 0.036769 0.146660 -0.515566 -0.181010 0.000000 0.000000 0.000000 -3.538684 -0.351215 0.789976 -4.295187 -3.861438 1.069568 19.799761 8.765308 -0.666291 -10.399664 -9.105390 10.250853 0.000000 0.000000 0.000000 0.000000 0.000000 0.000000 0.646517 -12.737171 -3.421186 -2.132412 20.891459 7.607208 4.660450 10.656059 -2.164177 -9.980395 -7.905360 -6.744721 0.000000 0.000000 0.000000 0.000000 0.000000 0.000000 2.107363 -0.895035 41.215411 0.293720 0.526790 0.145843 -6.358683 -7.505966 9.492527 0.000000 0.000000 0.000000 0.478905 -1.599332 41.040942 1.000187 0.000012 0.055327 27.540387 -43.413855 3.785554 0.000000 0.000000 0.000000
11.832697 73.438994 361.835757 -0.284056 1.525966 -41.153961 0.877901 0.201387 41.168719 0.302555 -0.114118 0.041173 -0.162360 -0.309755 -0.254866 0.000000 0.000000 0.000000 -3.280610 -0.144103 0.734788 -4.476742 -3.997285 1.710718 19.139896 8.202286 -2.267450 -8.656589 -10.740748 21.619139 0.000000 0.000000 0.000000 0.000000 0.000000 0.000000 0.410116 -12.533327 -3.467589 -2.033676 20.966729 7.910566 5.468927 12.398602 -2.638295 -11.646082 -6.006562 -2.701534 0.000000 0.000000 0.000000 0.000000 0.000000 0.000000 2.056015 -0.886395 41.262766 0.338259 0.409200 0.168103 -6.131566 -7.142228 8.319817 0.000000 0.000000 0.000000 -0.107218 -2.093637 41.036433 1.742403 -0.016845 0.096453 31.111920 -23.956541 -3.862825 0.000000 0.000000 0.000000
11.827862 73.429338 361.833610 -0.243708 1.498587 -41.208448 0.910985 0.204054 41.224948 0.329884 -0.153103 0.046630 -0.538819 0.058405 -0.382531 0.000000 0.000000 0.000000 -3.059412 0.026509 0.668012 -4.604566 -4.025501 2.051374 18.616072 7.776857 -4.082892 -11.290714 -9.439747 18.934884 0.000000 0.000000 0.000000 0.000000 0.000000 0.000000 0.306484 -12.467553 -3.487881 -2.112747 20.089140 7.943324 6.330449 14.706750 -3.098539 -12.507583 -6.867657 -5.241444 0.000000 0.000000 0.000000 0.000000 0.000000 0.000000 1.170741 -0.966766 41.221513 1.079022 -0.189660 0.279293 -6.538947 -9.010694 1.447459 0.000000 0.000000 0.000000 -0.410691 -2.017049 41.078967 1.881722 -0.247794 0.105438 35.813393 -16.465632 -7.603383 0.000000 0.000000 0.000000
11.831319 73.426771 361.824670 -0.194689 1.479772 -41.180335 0.934963 0.222917 41.198653 0.350772 -0.178660 0.051905 -0.890391 0.348072 -0.492713 0.000000 0.000000 0.000000 -3.333768 0.054480 0.703233 -5.046720 -4.281386 2.014758 18.518821 7.545005 -6.269859 -10.525398 -12.148448 37.028460 0.000000 0.000000 0.000000 0.000000 0.000000 0.000000 0.410641 -12.590764 -3.445026 -2.379550 19.679361 7.972170 6.372311 15.774274 -2.673963 -12.724685 -6.955027 -11.399644 0.000000 0.000000 0.000000 0.000000 0.000000 0.000000 1.120983 -0.985466 41.192490 1.145976 -0.268450 0.302620 -9.083315 -13.226025 1.826958 0.000000 0.000000 0.000000 0.423115 -1.787769 41.115749 1.053209 0.145495 0.058516 41.302133 -16.584015 -8.968379 0.000000 0.000000 0.000000
11.839145 73.419968 361.819897 -0.146544 1.473835 -41.246457 0.933984 0.245328 41.265796 0.351569 -0.193258 0.054758 -1.052913 0.457237 -0.540554 0.000000 0.000000 0.000000 -3.832032 -0.054728 0.786963 -5.181028 -4.235082 0.155259 18.117180 7.999074 -2.182731 -11.092968 -12.488090 40.047797 0.000000 0.000000 0.000000 0.000000 0.000000 0.000000 0.734987 -12.886348 -3.346339 -2.838790 19.462301 8.055809 5.747613 15.580657 -1.693348 -10.393247 -13.067657 -12.334373 0.000000 0.000000 0.000000 0.000000 0.000000 0.000000 1.082004 -1.011458 41.257893 1.234631 -0.348184 0.331469 -11.317734 -16.832630 -4.802254 0.000000 0.000000 0.000000 1.082004 -1.011458 41.257893 -0.000000 0.000000 0.000000 21.991703 10.637355 -10.219381 0.000000 0.000000 0.000000
11.834250 73.399262 361.819690 -0.111443 1.484365 -41.313663 0.918725 0.263978 41.333286 0.347391 -0.191938 0.055854 -1.128921 0.455561 -0.557030 0.000000 0.000000 0.000000 -4.384606 -0.243278 0.883336 -6.316300 -4.526524 -2.114080 18.158549 8.718870 4.469314 -9.728337 -11.958832 38.962333 0.000000 0.000000 0.000000 0.000000 0.000000 0.000000 1.240020 -13.325979 -3.198538 -3.455643 19.679923 8.272665 4.659855 13.743670 -0.662807 -8.564010 -13.499922 -11.208027 0.000000 0.000000 0.000000 0.000000 0.000000 0.000000 1.063780 -1.041275 41.324773 1.275849 -0.369373 0.343514 -20.626288 -25.607399 -28.701453 0.000000 0.000000 0.000000 -0.004410 -1.992735 41.217255 1.980318 -0.712276 0.358784 15.102354 11.845666 -7.871597 0.000000 0.000000 0.000000
11.832295 73.379808 361.829677 -0.083943 1.495918 -41.385279 0.868774 0.273440 41.403822 0.318194 -0.177416 0.053171 -1.052339 0.334084 -0.531775 0.000000 0.000000 0.000000 -4.748182 -0.471814 0.947151 -6.467112 -4.402207 -3.644292 18.417818 9.424087 9.906911 -11.846823 -11.151975 34.112287 0.000000 0.000000 0.000000 0.000000 0.000000 0.000000 1.871153 -14.017882 -3.079602 -4.184014 19.894752 8.569481 3.351931 10.665117 0.071102 -5.521988 -14.706280 -8.440440 0.000000 0.000000 0.000000 0.000000 0.000000 0.000000 1.052088 -1.066795 41.396170 1.251400 -0.315012 0.332671 -26.575482 -27.202921 -47.534088 0.000000 0.000000 0.000000 0.886215 -1.999103 41.344315 0.740401 0.590353 0.043603 2.543448 19.189989 -2.084074 0.000000 0.000000 0.000000
11.803612 73.362963 361.842796 -0.087642 1.522268 -41.501606 0.845758 0.287305 41.519467 0.292331 -0.166952 0.050480 -0.969651 0.241465 -0.514860 0.000000 0.000000 0.000000 -5.615812 -0.817012 1.109928 -4.389601 -3.670202 -3.735023 14.986621 7.538682 11.039956 -8.902333 -9.455340 29.848863 0.000000 0.000000 0.000000 0.000000 0.000000 0.000000 1.622883 -19.620489 -4.957518 -5.463040 26.084415 11.929346 1.213696 4.507878 0.720605 -2.577988 -11.892476 -8.441401 0.000000 0.000000 0.000000 0.000000 0.000000 0.000000 1.074490 -1.081937 41.512916 1.166812 -0.204515 0.302132 -23.987148 -24.936618 -52.161819 0.000000 0.000000 0.000000 0.936221 -2.401436 41.444836 0.977088 0.897528 0.056223 0.312720 20.543163 -1.034279 0.000000 0.000000 0.000000
11.759474 73.356572 361.848187 -0.117371 1.584149 -41.724910 0.819751 0.308450 41.741654 0.256086 -0.130946 0.045480 -0.798315 -0.013743 -0.456937 0.000000 0.000000 0.000000 -7.041961 -1.390952 1.370575 -2.640024 -3.193226 -3.518013 12.987229 6.208201 9.608642 -8.796721 -7.579400 26.680171 0.000000 0.000000 0.000000 0.000000 0.000000 0.000000 3.567940 -13.670713 -2.066367 -5.605706 18.072519 7.999604 1.358479 6.809142 1.723569 -1.246319 -15.074117 -6.168872 0.000000 0.000000 0.000000 0.000000 0.000000 0.000000 1.142089 -1.104126 41.737538 1.029734 -0.100477 0.259472 -15.430043 -20.203994 -44.627596 0.000000 0.000000 0.000000 2.281735 -2.094760 41.763517 -0.190404 1.497618 0.008321 -10.130102 21.762797 4.274885 0.000000 0.000000 0.000000
11.726212 73.337606 361.848528 -0.141610 1.624908 -41.938043 0.811388 0.289523 41.953845 0.235282 -0.139705 0.042276 -0.499715 0.027493 -0.461336 0.000000 0.000000 0.000000 -7.750916 -1.656688 1.502650 -3.908234 -3.532548 -5.289125 17.063271 8.807101 12.787271 -9.143788 -9.572184 28.615597 0.000000 0.000000 0.000000 0.000000 0.000000 0.000000 5.389438 -7.124682 0.795082 -6.517023 10.151273 4.171923 0.066261 4.966483 3.390916 5.283831 -19.750218 2.899487 0.000000 0.000000 0.000000 0.000000 0.000000 0.000000 1.976232 -0.849331 42.019990 0.174311 0.274883 0.173996 -10.432675 -16.580326 -31.584933 0.000000 0.000000 0.000000 1.651399 -2.951891 41.900639 0.885314 1.674996 0.054371 -14.836458 18.114650 6.468854 0.000000 0.000000 0.000000
11.697254 73.325586 361.852475 -0.161169 1.653859 -42.149980 0.800074 0.255945 42.164604 0.220788 -0.161918 0.039519 -0.244646 0.151423 -0.486750 0.000000 0.000000 0.000000 -7.504684 -1.626137 1.469612 -3.566493 -3.424296 -4.705956 17.746265 9.218935 11.909539 -4.354304 -10.473993 23.616153 0.000000 0.000000 0.000000 0.000000 0.000000 0.000000 6.496906 -0.950999 3.128830 -7.561267 3.077102 0.809441 1.187845 8.477032 2.889900 4.189029 -20.060798 4.981627 0.000000 0.000000 0.000000 0.000000 0.000000 0.000000 2.078437 -0.830914 42.238546 0.012729 0.300412 0.145482 -8.122951 -13.626868 -14.588832 0.000000 0.000000 0.000000 2.026749 -3.195765 42.127182 1.125982 2.811275 -0.111444 -15.308585 11.248648 6.104351 0.000000 0.000000 0.000000
11.674213 73.323511 361.857237 -0.185261 1.709095 -42.356140 0.728394 0.238715 42.367711 0.196250 -0.164008 0.033967 0.225659 -0.102447 -0.393934 0.000000 0.000000 0.000000 -7.106225 -1.498435 1.451949 -4.554385 -3.873087 -4.848053 18.624904 9.648114 11.510819 -5.150888 -11.722498 33.548601 0.000000 0.000000 0.000000 0.000000 0.000000 0.000000 6.694827 3.496121 4.590082 -8.027110 -1.848355 -1.437825 1.496090 10.229301 3.208919 9.025034 -29.204023 10.269252 0.000000 0.000000 0.000000 0.000000 0.000000 0.000000 2.170378 -0.829035 42.448194 0.044952 0.127041 0.176293 -7.904293 -12.457439 -6.591085 0.000000 0.000000 0.000000 2.466168 -2.977413 42.370007 0.496870 2.957177 -0.166564 -5.595441 5.864210 2.042486 0.000000 0.000000 0.000000
11.669959 73.325855 361.864483 -0.163022 1.668951 -42.453239 0.791700 0.192268 42.466574 0.244738 -0.256332 0.041057 0.130052 0.446640 -0.531712 0.000000 0.000000 0.000000 -6.499614 -1.010647 1.362751 -5.955554 -4.404323 -4.777535 20.442544 10.549898 9.694775 -6.624309 -12.360630 36.175506 0.000000 0.000000 0.000000 0.000000 0.000000 0.000000 6.568653 5.945655 5.253342 -8.500479 -5.012958 -2.505821 2.263242 11.607624 2.144839 12.455644 -32.337280 16.137152 0.000000 0.000000 0.000000 0.000000 0.000000 0.000000 2.119978 -0.801838 42.541875 0.022660 0.003750 0.182511 -7.841127 -11.798415 -1.273494 0.000000 0.000000 0.000000 1.958302 -3.133808 42.426636 0.832893 1.965239 0.053305 8.480591 -1.620488 -2.862253 0.000000 0.000000 0.000000
